<mxfile host="Electron" agent="Mozilla/5.0 (Windows NT 10.0; Win64; x64) AppleWebKit/537.36 (KHTML, like Gecko) draw.io/28.2.5 Chrome/138.0.7204.251 Electron/37.6.1 Safari/537.36" version="28.2.5">
  <diagram name="Page-1" id="1H1qI3S15T3kPHHxzbl0">
    <mxGraphModel dx="802" dy="482" grid="1" gridSize="10" guides="1" tooltips="1" connect="1" arrows="1" fold="1" page="1" pageScale="1" pageWidth="1100" pageHeight="850" math="0" shadow="0">
      <root>
        <mxCell id="0" />
        <mxCell id="1" parent="0" />
        <mxCell id="9ogdjRn3hWSHYTOO4pbM-1" value="" style="swimlane;startSize=0;horizontal=0;childLayout=treeLayout;horizontalTree=1;sortEdges=1;resizable=0;containerType=tree;fontSize=12;" vertex="1" parent="1">
          <mxGeometry x="380" y="250" width="440" height="464" as="geometry" />
        </mxCell>
        <mxCell id="9ogdjRn3hWSHYTOO4pbM-2" value="&lt;span style=&quot;font-size: 20px;&quot;&gt;&lt;i&gt;ktor&lt;/i&gt;&lt;/span&gt;" style="whiteSpace=wrap;html=1;" vertex="1" parent="9ogdjRn3hWSHYTOO4pbM-1">
          <mxGeometry x="20" y="212" width="100" height="40" as="geometry" />
        </mxCell>
        <mxCell id="9ogdjRn3hWSHYTOO4pbM-3" value="&lt;span style=&quot;font-size: 20px;&quot;&gt;&lt;i&gt;daos&lt;/i&gt;&lt;/span&gt;" style="whiteSpace=wrap;html=1;" vertex="1" parent="9ogdjRn3hWSHYTOO4pbM-1">
          <mxGeometry x="170" y="20" width="100" height="40" as="geometry" />
        </mxCell>
        <mxCell id="9ogdjRn3hWSHYTOO4pbM-4" value="" style="edgeStyle=elbowEdgeStyle;elbow=horizontal;html=1;rounded=1;curved=0;sourcePerimeterSpacing=0;targetPerimeterSpacing=0;startSize=6;endSize=6;" edge="1" parent="9ogdjRn3hWSHYTOO4pbM-1" source="9ogdjRn3hWSHYTOO4pbM-2" target="9ogdjRn3hWSHYTOO4pbM-3">
          <mxGeometry relative="1" as="geometry" />
        </mxCell>
        <mxCell id="9ogdjRn3hWSHYTOO4pbM-5" value="&lt;span style=&quot;font-size: 20px;&quot;&gt;&lt;i&gt;entities&lt;/i&gt;&lt;/span&gt;" style="whiteSpace=wrap;html=1;" vertex="1" parent="9ogdjRn3hWSHYTOO4pbM-1">
          <mxGeometry x="170" y="132" width="100" height="40" as="geometry" />
        </mxCell>
        <mxCell id="9ogdjRn3hWSHYTOO4pbM-6" value="" style="edgeStyle=elbowEdgeStyle;elbow=horizontal;html=1;rounded=1;curved=0;sourcePerimeterSpacing=0;targetPerimeterSpacing=0;startSize=6;endSize=6;" edge="1" parent="9ogdjRn3hWSHYTOO4pbM-1" source="9ogdjRn3hWSHYTOO4pbM-2" target="9ogdjRn3hWSHYTOO4pbM-5">
          <mxGeometry relative="1" as="geometry" />
        </mxCell>
        <mxCell id="9ogdjRn3hWSHYTOO4pbM-11" value="" style="edgeStyle=elbowEdgeStyle;elbow=horizontal;html=1;rounded=1;curved=0;sourcePerimeterSpacing=0;targetPerimeterSpacing=0;startSize=6;endSize=6;" edge="1" target="9ogdjRn3hWSHYTOO4pbM-12" source="9ogdjRn3hWSHYTOO4pbM-2" parent="9ogdjRn3hWSHYTOO4pbM-1">
          <mxGeometry relative="1" as="geometry">
            <mxPoint x="500" y="-62" as="sourcePoint" />
          </mxGeometry>
        </mxCell>
        <mxCell id="9ogdjRn3hWSHYTOO4pbM-12" value="&lt;span style=&quot;font-size: 20px;&quot;&gt;&lt;i&gt;plugins&lt;/i&gt;&lt;/span&gt;" style="whiteSpace=wrap;html=1;" vertex="1" parent="9ogdjRn3hWSHYTOO4pbM-1">
          <mxGeometry x="170" y="244" width="100" height="40" as="geometry" />
        </mxCell>
        <mxCell id="9ogdjRn3hWSHYTOO4pbM-13" value="" style="edgeStyle=elbowEdgeStyle;elbow=horizontal;html=1;rounded=1;curved=0;sourcePerimeterSpacing=0;targetPerimeterSpacing=0;startSize=6;endSize=6;" edge="1" target="9ogdjRn3hWSHYTOO4pbM-14" source="9ogdjRn3hWSHYTOO4pbM-2" parent="9ogdjRn3hWSHYTOO4pbM-1">
          <mxGeometry relative="1" as="geometry">
            <mxPoint x="500" y="18" as="sourcePoint" />
          </mxGeometry>
        </mxCell>
        <mxCell id="9ogdjRn3hWSHYTOO4pbM-14" value="&lt;span style=&quot;font-size: 20px;&quot;&gt;&lt;i&gt;routes&lt;/i&gt;&lt;/span&gt;" style="whiteSpace=wrap;html=1;" vertex="1" parent="9ogdjRn3hWSHYTOO4pbM-1">
          <mxGeometry x="170" y="324" width="100" height="40" as="geometry" />
        </mxCell>
        <mxCell id="9ogdjRn3hWSHYTOO4pbM-15" value="" style="edgeStyle=elbowEdgeStyle;elbow=horizontal;html=1;rounded=1;curved=0;sourcePerimeterSpacing=0;targetPerimeterSpacing=0;startSize=6;endSize=6;" edge="1" target="9ogdjRn3hWSHYTOO4pbM-16" source="9ogdjRn3hWSHYTOO4pbM-5" parent="9ogdjRn3hWSHYTOO4pbM-1">
          <mxGeometry relative="1" as="geometry">
            <mxPoint x="500" y="138" as="sourcePoint" />
          </mxGeometry>
        </mxCell>
        <mxCell id="9ogdjRn3hWSHYTOO4pbM-16" value="&lt;span style=&quot;font-size: 20px;&quot;&gt;&lt;i&gt;structures&lt;/i&gt;&lt;/span&gt;" style="whiteSpace=wrap;html=1;" vertex="1" parent="9ogdjRn3hWSHYTOO4pbM-1">
          <mxGeometry x="320" y="92" width="100" height="40" as="geometry" />
        </mxCell>
        <mxCell id="9ogdjRn3hWSHYTOO4pbM-19" value="" style="edgeStyle=elbowEdgeStyle;elbow=horizontal;html=1;rounded=1;curved=0;sourcePerimeterSpacing=0;targetPerimeterSpacing=0;startSize=6;endSize=6;" edge="1" target="9ogdjRn3hWSHYTOO4pbM-20" source="9ogdjRn3hWSHYTOO4pbM-5" parent="9ogdjRn3hWSHYTOO4pbM-1">
          <mxGeometry relative="1" as="geometry">
            <mxPoint x="650" y="98" as="sourcePoint" />
          </mxGeometry>
        </mxCell>
        <mxCell id="9ogdjRn3hWSHYTOO4pbM-20" value="&lt;span style=&quot;font-size: 20px;&quot;&gt;&lt;i&gt;tables&lt;/i&gt;&lt;/span&gt;" style="whiteSpace=wrap;html=1;" vertex="1" parent="9ogdjRn3hWSHYTOO4pbM-1">
          <mxGeometry x="320" y="172" width="100" height="40" as="geometry" />
        </mxCell>
        <mxCell id="9ogdjRn3hWSHYTOO4pbM-21" value="" style="edgeStyle=elbowEdgeStyle;elbow=horizontal;html=1;rounded=1;curved=0;sourcePerimeterSpacing=0;targetPerimeterSpacing=0;startSize=6;endSize=6;" edge="1" target="9ogdjRn3hWSHYTOO4pbM-22" source="9ogdjRn3hWSHYTOO4pbM-2" parent="9ogdjRn3hWSHYTOO4pbM-1">
          <mxGeometry relative="1" as="geometry">
            <mxPoint x="500" y="290" as="sourcePoint" />
          </mxGeometry>
        </mxCell>
        <mxCell id="9ogdjRn3hWSHYTOO4pbM-22" value="&lt;span style=&quot;font-size: 20px;&quot;&gt;&lt;i&gt;utils&lt;/i&gt;&lt;/span&gt;" style="whiteSpace=wrap;html=1;" vertex="1" parent="9ogdjRn3hWSHYTOO4pbM-1">
          <mxGeometry x="170" y="404" width="100" height="40" as="geometry" />
        </mxCell>
      </root>
    </mxGraphModel>
  </diagram>
</mxfile>
